<mxfile host="app.diagrams.net" modified="2023-06-26T23:31:27.713Z" agent="Mozilla/5.0 (Windows NT 10.0; Win64; x64) AppleWebKit/537.36 (KHTML, like Gecko) Chrome/114.0.0.0 Safari/537.36 Edg/114.0.1823.58" etag="geWgNXeHr63VMNsvRcRK" version="21.5.0" type="github">
  <diagram name="Page-1" id="c7488fd3-1785-93aa-aadb-54a6760d102a">
    <mxGraphModel dx="956" dy="543" grid="1" gridSize="10" guides="1" tooltips="1" connect="1" arrows="1" fold="1" page="1" pageScale="1" pageWidth="1100" pageHeight="850" background="none" math="0" shadow="0">
      <root>
        <mxCell id="0" />
        <mxCell id="1" parent="0" />
        <mxCell id="2b4e8129b02d487f-1" value="Flujo de API Tramites alumnos" style="swimlane;html=1;childLayout=stackLayout;horizontal=1;startSize=20;horizontalStack=0;rounded=0;shadow=0;labelBackgroundColor=none;strokeWidth=1;fontFamily=Verdana;fontSize=8;align=center;" parent="1" vertex="1">
          <mxGeometry x="170" y="70" width="680" height="770" as="geometry" />
        </mxCell>
        <mxCell id="2b4e8129b02d487f-2" value="Programa" style="swimlane;html=1;startSize=20;horizontal=0;" parent="2b4e8129b02d487f-1" vertex="1">
          <mxGeometry y="20" width="680" height="60" as="geometry" />
        </mxCell>
        <mxCell id="2b4e8129b02d487f-18" style="edgeStyle=orthogonalEdgeStyle;rounded=0;html=1;labelBackgroundColor=none;startArrow=none;startFill=0;startSize=5;endArrow=classicThin;endFill=1;endSize=5;jettySize=auto;orthogonalLoop=1;strokeWidth=1;fontFamily=Verdana;fontSize=8" parent="2b4e8129b02d487f-2" source="2b4e8129b02d487f-5" target="2b4e8129b02d487f-6" edge="1">
          <mxGeometry relative="1" as="geometry" />
        </mxCell>
        <mxCell id="2b4e8129b02d487f-5" value="" style="ellipse;whiteSpace=wrap;html=1;rounded=0;shadow=0;labelBackgroundColor=none;strokeWidth=1;fontFamily=Verdana;fontSize=8;align=center;" parent="2b4e8129b02d487f-2" vertex="1">
          <mxGeometry x="50" y="15" width="30" height="30" as="geometry" />
        </mxCell>
        <mxCell id="2b4e8129b02d487f-6" value="Consumir API Programa" style="rounded=1;whiteSpace=wrap;html=1;shadow=0;labelBackgroundColor=none;strokeWidth=1;fontFamily=Verdana;fontSize=8;align=center;" parent="2b4e8129b02d487f-2" vertex="1">
          <mxGeometry x="130" y="11.499999999999972" width="70" height="37" as="geometry" />
        </mxCell>
        <mxCell id="2b4e8129b02d487f-11" value="" style="ellipse;whiteSpace=wrap;html=1;rounded=0;shadow=0;labelBackgroundColor=none;strokeWidth=2;fontFamily=Verdana;fontSize=8;align=center;" parent="2b4e8129b02d487f-2" vertex="1">
          <mxGeometry x="610" y="25" width="30" height="30" as="geometry" />
        </mxCell>
        <mxCell id="2b4e8129b02d487f-3" value="Tramite" style="swimlane;html=1;startSize=20;horizontal=0;" parent="2b4e8129b02d487f-1" vertex="1">
          <mxGeometry y="80" width="680" height="60" as="geometry" />
        </mxCell>
        <mxCell id="2b4e8129b02d487f-12" value="Consumir API Tramite" style="rounded=1;whiteSpace=wrap;html=1;shadow=0;labelBackgroundColor=none;strokeWidth=1;fontFamily=Verdana;fontSize=8;align=center;" parent="2b4e8129b02d487f-3" vertex="1">
          <mxGeometry x="130" y="10" width="70" height="30" as="geometry" />
        </mxCell>
        <mxCell id="UgvWueD7E0uEUm6fJQGE-1" value="Servicio" style="swimlane;html=1;startSize=20;horizontal=0;" vertex="1" parent="2b4e8129b02d487f-1">
          <mxGeometry y="140" width="680" height="60" as="geometry" />
        </mxCell>
        <mxCell id="UgvWueD7E0uEUm6fJQGE-27" style="edgeStyle=orthogonalEdgeStyle;rounded=0;orthogonalLoop=1;jettySize=auto;html=1;entryX=0;entryY=0.5;entryDx=0;entryDy=0;entryPerimeter=0;" edge="1" parent="UgvWueD7E0uEUm6fJQGE-1" source="UgvWueD7E0uEUm6fJQGE-19" target="UgvWueD7E0uEUm6fJQGE-26">
          <mxGeometry relative="1" as="geometry" />
        </mxCell>
        <mxCell id="UgvWueD7E0uEUm6fJQGE-19" value="Consumir API Servicio" style="rounded=1;whiteSpace=wrap;html=1;shadow=0;labelBackgroundColor=none;strokeWidth=1;fontFamily=Verdana;fontSize=8;align=center;" vertex="1" parent="UgvWueD7E0uEUm6fJQGE-1">
          <mxGeometry x="130" y="9.999999999999943" width="70" height="37" as="geometry" />
        </mxCell>
        <mxCell id="UgvWueD7E0uEUm6fJQGE-26" value="" style="verticalLabelPosition=bottom;verticalAlign=top;html=1;shape=mxgraph.flowchart.parallel_mode;pointerEvents=1" vertex="1" parent="UgvWueD7E0uEUm6fJQGE-1">
          <mxGeometry x="275" y="8.5" width="95" height="40" as="geometry" />
        </mxCell>
        <mxCell id="UgvWueD7E0uEUm6fJQGE-9" value="Motivo" style="swimlane;html=1;startSize=20;horizontal=0;" vertex="1" parent="2b4e8129b02d487f-1">
          <mxGeometry y="200" width="680" height="60" as="geometry" />
        </mxCell>
        <mxCell id="UgvWueD7E0uEUm6fJQGE-21" value="Consumir API Motivo" style="rounded=1;whiteSpace=wrap;html=1;shadow=0;labelBackgroundColor=none;strokeWidth=1;fontFamily=Verdana;fontSize=8;align=center;" vertex="1" parent="UgvWueD7E0uEUm6fJQGE-9">
          <mxGeometry x="160" y="11.499999999999943" width="70" height="37" as="geometry" />
        </mxCell>
        <mxCell id="UgvWueD7E0uEUm6fJQGE-41" value="TraInsFiltro&lt;br&gt;" style="swimlane;html=1;startSize=20;horizontal=0;" vertex="1" parent="2b4e8129b02d487f-1">
          <mxGeometry y="260" width="680" height="70" as="geometry" />
        </mxCell>
        <mxCell id="UgvWueD7E0uEUm6fJQGE-42" style="edgeStyle=orthogonalEdgeStyle;rounded=0;orthogonalLoop=1;jettySize=auto;html=1;" edge="1" parent="UgvWueD7E0uEUm6fJQGE-41" source="UgvWueD7E0uEUm6fJQGE-43" target="UgvWueD7E0uEUm6fJQGE-44">
          <mxGeometry relative="1" as="geometry" />
        </mxCell>
        <mxCell id="UgvWueD7E0uEUm6fJQGE-43" value="Consumir API TraInsFiltro" style="rounded=1;whiteSpace=wrap;html=1;shadow=0;labelBackgroundColor=none;strokeWidth=1;fontFamily=Verdana;fontSize=8;align=center;" vertex="1" parent="UgvWueD7E0uEUm6fJQGE-41">
          <mxGeometry x="260" y="11.499999999999943" width="70" height="37" as="geometry" />
        </mxCell>
        <mxCell id="UgvWueD7E0uEUm6fJQGE-44" value="" style="verticalLabelPosition=bottom;verticalAlign=top;html=1;shape=mxgraph.flowchart.parallel_mode;pointerEvents=1" vertex="1" parent="UgvWueD7E0uEUm6fJQGE-41">
          <mxGeometry x="370" y="10" width="95" height="40" as="geometry" />
        </mxCell>
        <mxCell id="2b4e8129b02d487f-4" value="Tipo" style="swimlane;html=1;startSize=20;horizontal=0;" parent="2b4e8129b02d487f-1" vertex="1">
          <mxGeometry y="330" width="680" height="70" as="geometry" />
        </mxCell>
        <mxCell id="UgvWueD7E0uEUm6fJQGE-49" value="Consumir API TraInsFiltro" style="rounded=1;whiteSpace=wrap;html=1;shadow=0;labelBackgroundColor=none;strokeWidth=1;fontFamily=Verdana;fontSize=8;align=center;" vertex="1" parent="2b4e8129b02d487f-4">
          <mxGeometry x="160" y="16.499999999999943" width="70" height="37" as="geometry" />
        </mxCell>
        <mxCell id="2b4e8129b02d487f-24" style="edgeStyle=orthogonalEdgeStyle;rounded=0;html=1;labelBackgroundColor=none;startArrow=none;startFill=0;startSize=5;endArrow=classicThin;endFill=1;endSize=5;jettySize=auto;orthogonalLoop=1;strokeWidth=1;fontFamily=Verdana;fontSize=8" parent="2b4e8129b02d487f-1" source="2b4e8129b02d487f-6" target="2b4e8129b02d487f-12" edge="1">
          <mxGeometry relative="1" as="geometry" />
        </mxCell>
        <mxCell id="UgvWueD7E0uEUm6fJQGE-20" style="edgeStyle=orthogonalEdgeStyle;rounded=0;orthogonalLoop=1;jettySize=auto;html=1;" edge="1" parent="2b4e8129b02d487f-1" source="2b4e8129b02d487f-12" target="UgvWueD7E0uEUm6fJQGE-19">
          <mxGeometry relative="1" as="geometry" />
        </mxCell>
        <mxCell id="UgvWueD7E0uEUm6fJQGE-28" style="edgeStyle=orthogonalEdgeStyle;rounded=0;orthogonalLoop=1;jettySize=auto;html=1;entryX=1;entryY=0.5;entryDx=0;entryDy=0;" edge="1" parent="2b4e8129b02d487f-1" source="UgvWueD7E0uEUm6fJQGE-26" target="UgvWueD7E0uEUm6fJQGE-21">
          <mxGeometry relative="1" as="geometry">
            <Array as="points">
              <mxPoint x="280" y="230" />
            </Array>
          </mxGeometry>
        </mxCell>
        <mxCell id="UgvWueD7E0uEUm6fJQGE-45" style="edgeStyle=orthogonalEdgeStyle;rounded=0;orthogonalLoop=1;jettySize=auto;html=1;" edge="1" parent="2b4e8129b02d487f-1" source="UgvWueD7E0uEUm6fJQGE-26" target="UgvWueD7E0uEUm6fJQGE-43">
          <mxGeometry relative="1" as="geometry" />
        </mxCell>
      </root>
    </mxGraphModel>
  </diagram>
</mxfile>
